<svg version="1.1" xmlns="http://www.w3.org/2000/svg" viewBox="-308.2240000486374 -1269.76005859375 8726.402174511124 2703.3601013183593"><desc>Created with Snap</desc><defs></defs><g><g transform="matrix(12.7603,0,0,12.7603,4709.3762,-962.5601)">
  <title>icon</title>
  <g id="gSkuwtrt8l7d5">
    <g>
      <path d="M12.34863,91.96875a91.96875,91.96875,0,0,1,183.9375,0" fill="#fbd705"></path>
      <path d="M168.14027,79.55616l-6.75-30.65625s-30.09374-10.125-77.625-8.71875c0,0-37.125,11.25-52.03124,50.625,0,0-28.6875.5625-29.25,23.0625,0,0-5.34376,19.96875,12.09375,25.03125l109.96875,10.125,135-4.21875s13.21874-48.65625-15.46875-57.65625c0,0-18.28125-3.65625-23.34375,2.25Z" fill="#eb6331"></path>
      <path d="M149.57778,87.14991s41.25,18,62.625,17.625l-45,3.375Z" fill="#fbd705"></path>
      <path d="M80.01527,114.33741A245.08753,245.08753,0,0,1,97.17889,94.54809c6.266-6.26865,10.33-9.76574,20.61764-10.49193,23.90625-1.6875,36.5625,8.71875,36.5625,8.71875s-38.25-3.09375-44.71876,24.46875Z" fill="#fbd705"></path>
      <path d="M11.76527,121.74366s3.93751-19.59375,20.81251-21.28125L76.06732,90.11814,64.07778,87.89991s2.25-37.3125,18.56249-45.46875c0,0-41.625,13.5-49.78124,46.40625,0,0-31.5,9.84375-29.8125,28.40625" fill="#fbd705"></path>
      <ellipse cx="143.81215" cy="125.25928" rx="10.82812" ry="6.60938" fill="#fbd705"></ellipse>
      <ellipse cx="254.3434" cy="125.25928" rx="9.14063" ry="6.60938" fill="#fbd705"></ellipse>
      <polygon points="231.422 128.212 226.64 145.65 179.672 145.931 184.172 129.056 231.422 128.212" fill="#fff"></polygon>
      <ellipse cx="21.45277" cy="139.18116" rx="5.0625" ry="11.34375" fill="#fff"></ellipse>
      <ellipse cx="98.20278" cy="138.43116" rx="6" ry="15.09375" fill="#fff"></ellipse>
      <path d="M166.82778,107.39991l66.75-1.875,4.125,3.9375,24.65625-.9375s2.25-27.84375-36.5625-23.625l-7.59375,3.09375-47.53125-4.5-28.59375,1.40625S165.14028,95.02491,166.82778,107.39991Z" fill="#fff"></path>
      <path d="M90.79653,42.43116s27.5625,5.0625,31.5,11.25L98.109,85.74366l18.28124-.5625,47.81251-25.59375-2.53125-9.5625S135.79653,38.21241,90.79653,42.43116Z" fill="#fff"></path>
      <path d="M256.06386,89.71342c-8.82537-7.37568-22.84932-8.663-41.6686-3.86984a59.51127,59.51127,0,0,0-17.16313-3.96927l-12.92781-.55717a2.90345,2.90345,0,0,0,.25187-.5967c1.12725-4.509-6.6508-6.76353-11.61072-7.43988a3.762,3.762,0,0,0-1.89246.26224L163.23209,48.542l-.48456-.44c-.52684-.47751-13.66327-11.67178-80.15407-9.41414l-.46108.06106c-1.43333.33035-35.00282,8.53739-52.32575,50.1597l-12.77946,3.244A22.63961,22.63961,0,0,0,.0338,113.68481c-.09159,5.367.00314,10.20948.28182,14.38972l.02035.31156.09942.29434c.14091.41958,3.543,10.26584,12.2268,12.10859l1.15406.24326c.48515,8.93271,4.31195,15.89057,8.96383,15.89057H38.56164c4.069,0,7.50574-5.32432,8.62849-12.63621l33.73349,2.41009.0228.04325,7.10728.02642c1.38314,9.76817,5.91222,16.9419,11.29955,16.9419h20.55117c4.44854,0,8.30724-4.89828,10.29843-12.10194a15.03205,15.03205,0,0,0,1.54283.21879l.11116.0094,34.62707-.32409,45.63414-1.73354c2.08356,6.441,5.72248,10.725,9.88051,10.725h20.55116c4.65482,0,8.66518-5.36267,10.56517-13.118l8.41772-.08024a43.26955,43.26955,0,0,0,4.80306-24.02422C267.57732,107.973,264.02656,96.367,256.06386,89.71342Zm-45.615,51.68894-17.37821.89123.79368-4.16673h-.0001l.80963-4.2501,31.26252-1.60321-1.24839,6.55393h0l-.35481,1.8629-13.88432.712Zm43.75656-20.02561a8.99454,8.99454,0,0,1,2.84652.455,6.19906,6.19906,0,0,1,1.55555.76187c.058.04071.1185.07985.1733.12212.109.083.21048.16909.306.25774a3.35783,3.35783,0,0,1,.3008.32233c.06125.074.118.14893.16977.22584a2.44413,2.44413,0,0,1,.23445.43955c.02241.0548.04218.11038.05979.16654a2.00768,2.00768,0,0,1,.10284.59318c0,1.84706-2.5739,3.34419-5.749,3.34419a9.82518,9.82518,0,0,1-1.1295-.06615c-.1597-.01878-.30755-.05362-.46206-.07984-.1957-.03308-.39542-.06067-.582-.10529-.21117-.05049-.40638-.11742-.60375-.18181-.11028-.03581-.22682-.06517-.3325-.10509a6.33116,6.33116,0,0,1-.67087-.30491c-.04668-.02388-.09854-.04423-.14384-.06889a4.94279,4.94279,0,0,1-.65434-.42976c-.00881-.00666-.01928-.01272-.028-.01957a2.71334,2.71334,0,0,1-1.09927-1.73551,1.95247,1.95247,0,0,1-.04285-.24737C248.45646,122.87389,251.03035,121.37675,254.20545,121.37675ZM234.302,108.65815l.06889,7.1293a6.63559,6.63559,0,0,0-3.49958-2.30148c-10.59619-2.93086-46.21744,2.93086-46.21744,2.93086s-13.35053-.30862-11.84126,22.53394l-1.21728.04756-2.22857-.51588-.27419-28.38059Zm21.581-12.24891c-5.40064.51861-12.31134,4.60844-12.31134,9.2611a5.0068,5.0068,0,0,0,.74455,2.70522l-5.1063-.11332V106.198c0-2.76295-5.10474-9.11237-13.68362-14.65431a11.887,11.887,0,0,1,3.56347-3.48392c10.44727-.97069,18.45792.80551,23.88987,5.34389A20.0161,20.0161,0,0,1,255.88293,96.40924Zm-31.275.329c-.57713,4.37261-13.74243,6.70932-23.58614,7.84577l-32.56827.72c-3.11864-9.42236-10.84982-15.306-20.33872-18.90441,8.919-.35755,16.98994-.66441,22.68805-.849l26.14282,1.12549A55.27885,55.27885,0,0,1,224.60788,96.73822ZM21.34371,147.75451c-1.62346,0-2.93947-3.86945-2.93947-8.64228,0-4.773,1.316-8.64229,2.93947-8.64229s2.93938,3.86926,2.93938,8.64229C24.28309,143.88506,22.96707,147.75451,21.34371,147.75451Zm54.23289-6.26174a49.62177,49.62177,0,0,1-2.50208-9.05816c-.46215-2.16977-.63418-4.37065-.88272-6.56978-.12153-2.203-.257-4.41292-.19531-6.61988q.0411-3.35035.39072-6.68387l-17.1284.02739c.03288-1.61768.07241-3.23655.12731-4.863.11673-3.73579.30441-7.46748.53525-11.37373a34.19284,34.19284,0,0,0-4.27173,10.88114,52.60878,52.60878,0,0,0-.895,5.36307l-23.91639.03836a28.37222,28.37222,0,0,1,5.90164,12.88789,20.56222,20.56222,0,0,0-2.069,4.9742c-1.53764-5.48069-4.49346-9.19476-7.89078-9.19476a5.04255,5.04255,0,0,0-2.55051.73409c-2.0225-5.02392-7.18948-14.78015-15.31031-9.55681a17.8377,17.8377,0,0,1,10.58592-14.733c3.41748.25089,20.32356,1.7809,25.98733,7.84929,0,0-1.48774-7.62854-5.99314-11.61209l40.56795-3.865a16.28968,16.28968,0,0,1-3.01834-.91863,8.30785,8.30785,0,0,1-2.181-1.295c-.04139-.036-.07711-.07378-.11664-.11057a4.22341,4.22341,0,0,1-.563-.63212c-.04628-.06439-.09629-.1276-.13729-.19336a2.9242,2.9242,0,0,1-.37712-.83722c-.02-.07985-.01663-.15382-.03111-.2323h0c-.80073-4.35069,6.76979-6.54317,11.64183-7.20758a3.58629,3.58629,0,0,1,1.42894.13073l1.3892-28.1618A99.72312,99.72312,0,0,0,61.524,62.29883l-.215,24.3941-4.41068.42037V65.73578C49.56911,71.58165,42.648,79.22252,38.90716,88.82728l-3.98434.37966C50.77523,52.9023,80.2867,44.216,83.01618,43.48659c57.0657-1.92729,73.349,6.21712,76.06151,7.88452l1.43793,4.5967A98.72841,98.72841,0,0,0,144.149,51.611L114.05443,81.1776c-3.43254-.01937-6.69689.07046-9.67853.21939l22.7997-31.77391A165.21788,165.21788,0,0,0,92.36936,51.487L88.00947,83.48065c.15216.21918.29307.43779.436.65639q.25656.39277.49151.77655l.06762.11077c.14824.24345.29032.4826.42418.71451l.051.08866c.13171.22936.25589.45129.37214.66343.01966.036.03953.072.05871.10764.09961.18318.1914.35579.27809.52136.04081.07808.0821.15695.12.23054.26684.51783.458.9155.56275,1.14017l.039.08317c.029.06282.05069.11057.057.12466h0l.01154.02545c-.08767.0407-.18425.07162-.2733.11076,2.6787-.118,6.787-.29825,11.77756-.51509a18.94216,18.94216,0,0,0-2.38993,2.02886,12.651,12.651,0,0,0-2.91442,4.19961,27.81543,27.81543,0,0,1,4.27055-2.2819c1.42463-.65365,2.88086-1.19067,4.32515-1.70635a73.86758,73.86758,0,0,1,8.891-2.39756c.7195-.16674,1.4442-.31783,2.17221-.46128,4.395-.18768,9.01188-.38338,13.6754-.5787,15.43292,2.06429,30.10073,7.636,33.7104,20.8777l-7.52149-.32878a3.68335,3.68335,0,0,0,.597-2.00088c0-4.98066-12.23306-9.31864-20.74148-9.31864s-6.61323,3.83267-7.06413,8.86774a11.54046,11.54046,0,0,0-.04159,1.26092l-21.31548-.93175a12.71212,12.71212,0,0,0-3.71026-.99143c-6.94846-.76579-12.26055,2.7649-16.29117,7.97885l-7.99921.01272c.16929-6.24472.45638-12.518.58516-19.00266a49.955,49.955,0,0,0-4.13943,12.55617A70.4695,70.4695,0,0,0,75.2029,119.245c-.06155,2.207.07378,4.41684.19531,6.61988.24864,2.19913.42057,4.4.88272,6.56978.168.96306.37536,1.91966.59984,2.87255.01262.5284.026,1.06012.04168,1.59009.04218,1.43647.07887,2.88761.10852,4.34541-.02074.11507-.04452.2413-.0636.34953Zm66.91792-20.116c4.4825,0,8.11623,1.66545,8.11623,3.71995s-3.63373,3.71994-8.11623,3.71994-8.11623-1.66545-8.11623-3.71994S138.012,121.37675,142.49452,121.37675ZM97.48281,150.166c-1.07,0-2.0363-1.294-2.731-3.37472h.0001a20.44843,20.44843,0,0,1-.80239-3.5487l-.00058-.00528c-.09423-.66364-.16753-1.35936-.21733-2.08034l-.001-.01761c-.04932-.72-.07564-1.46465-.07564-2.2275,0-6.21556,1.71368-11.25415,3.82777-11.25415s3.82778,5.03859,3.82778,11.25415c0,.76579-.02642,1.51318-.07613,2.23572l-.00079.01605c-.05.72332-.12388,1.4212-.21869,2.08679l-.00069.00567a20.38243,20.38243,0,0,1-.80689,3.55555h.0001C99.51334,148.881,98.5494,150.166,97.48281,150.166ZM120.304,133.33661c-.67645-10.38268-2.83036-18.07208-6.325-22.89931,5.07186,3.08957,9.9488,7.7397,10.81753,14.43394,2.525,19.45728,23.75445,20.92526,39.81479,19.2831l.02476,2.56412-32.59459.30334C125.509,146.40807,120.70406,139.47389,120.304,133.33661Z" fill="#451a14"></path>
      <path d="M98.82705,163.0874a7.01531,7.01531,0,0,1-3.86328-.4225,11.50963,11.50963,0,0,1-3.35718-2.21745,20.82614,20.82614,0,0,1-4.508-6.52149,33.54984,33.54984,0,0,1-2.3711-7.466,41.00524,41.00524,0,0,1-.00561-15.49594,33.52122,33.52122,0,0,1,2.37036-7.46753,20.80536,20.80536,0,0,1,4.50928-6.52339,11.542,11.542,0,0,1,3.36035-2.2166,7.01116,7.01116,0,0,1,3.86523-.41907,8.79926,8.79926,0,0,0-5.35913,4.23068,24.44351,24.44351,0,0,0-2.69775,6.31742,45.62829,45.62829,0,0,0-1.366,6.83047,58.92683,58.92683,0,0,0-.00561,13.99378,45.52185,45.52185,0,0,0,1.36523,6.83195,24.39507,24.39507,0,0,0,2.699,6.31932A8.79691,8.79691,0,0,0,98.82705,163.0874Z" fill="#fff"></path>
      <path d="M22.76529,157.85616a5.30885,5.30885,0,0,1-2.83448-.403,8.52942,8.52942,0,0,1-2.42236-1.68541,15.6683,15.6683,0,0,1-3.22534-4.8595,29.494,29.494,0,0,1-.0044-22.51833,15.67393,15.67393,0,0,1,3.22681-4.86049,8.54851,8.54851,0,0,1,2.42407-1.6849,5.30593,5.30593,0,0,1,2.8357-.4009,6.54322,6.54322,0,0,0-4.1399,3.04282,17.67682,17.67682,0,0,0-2.15649,4.73059,39.03362,39.03362,0,0,0-.00415,20.86725,17.67936,17.67936,0,0,0,2.15747,4.7316A6.542,6.542,0,0,0,22.76529,157.85616Z" fill="#fff"></path>
      <path d="M72.18628,125.83608c-.12153-2.203-.257-4.41285-.19532-6.61988.02741-2.23352,1.15552-13.872,1.38892-16.0912L36.416,112.62123l34.40625,7.3125-17.4375,4.875Z" fill="#fff"></path>
      <polygon points="124.453 81.337 147.89 50.962 155.484 50.869 127.453 81.9 124.453 81.337" fill="#fff"></polygon>
      <path d="M135.234,98.9624c.134,1.17078.19873,2.14241.273,3.08777.06347.93721.13427,1.81778.22558,2.68909.09107.87041.16528,1.7429.30249,2.66211.0896.94131.28,1.8889.324,3.09228a5.756,5.756,0,0,1-2.52686-2.2487,7.15963,7.15963,0,0,1-1.08545-3.22459,7.38112,7.38112,0,0,1,.4419-3.35967A5.54227,5.54227,0,0,1,135.234,98.9624Z" fill="#fff"></path>
      <path d="M250.00479,92.15625a11.6149,11.6149,0,0,1,4.585,2.66574,14.673,14.673,0,0,1,3.229,4.298,14.99021,14.99021,0,0,1,.97852,2.54683c.10791.44327.19336.89366.26929,1.342a6.8629,6.8629,0,0,1,.13549,1.356,10.51486,10.51486,0,0,1-1.041,5.2289c-.48291-1.74867-.73975-3.3273-1.28394-4.83047a27.759,27.759,0,0,0-1.74634-4.313,42.92832,42.92832,0,0,0-2.32885-4.102C251.93326,94.98671,251.00308,93.63615,250.00479,92.15625Z" fill="#fff"></path>
      <path d="M154.56729,80.34375a29.846,29.846,0,0,1,11.46-1.11287,37.52276,37.52276,0,0,1,11.29248,2.70436,31.09663,31.09663,0,0,1,9.88061,6.41406,21.489,21.489,0,0,1,5.992,9.99445,75.13288,75.13288,0,0,0-8.89575-6.27628,73.53108,73.53108,0,0,0-9.27735-4.59278c-3.2019-1.32732-6.5039-2.51192-9.90844-3.63244C161.70205,82.70357,158.23062,81.62192,154.56729,80.34375Z" fill="#451a14"></path>
    </g>
  </g>
<desc>Created with Snap</desc><defs></defs></g><g><g transform="matrix(1.024,0,0,-1.024,0,0)"><path d="M908 224Q914 226 926 226Q960 226 960 182Q960 158 949 141Q939 125 917 121Q826 104 738 83L735 59Q707 -138 623 -233Q540 -327 415 -327Q332 -327 286 -287Q241 -246 241 -183Q241 -78 335 4Q429 86 620 149L640 290Q644 314 650 354Q603 230 530 169Q457 108 367 108Q281 108 236 160Q191 213 191 296Q191 333 199 377Q207 422 224 498Q239 567 246 608Q254 649 254 681Q254 729 217 729Q188 729 148 700Q109 672 65 613Q51 594 34 594Q20 594 9 607Q-1 621 -1 638Q-1 669 27 708Q129 848 266 848Q327 848 361 811Q396 774 396 702Q396 650 386 595Q377 541 358 457Q346 407 340 376Q334 346 334 326Q334 275 352 253Q370 231 415 231Q469 231 525 290Q582 350 627 471Q673 592 693 767Q698 811 716 829Q734 848 768 848Q838 848 838 778Q838 766 837 759Q816 610 798 490Q788 418 776 342Q765 266 754 188Q827 208 908 224ZM604 37L605 44Q363 -40 363 -160Q363 -188 380 -207Q398 -225 430 -225Q569 -225 604 37ZM1409 307Q1422 307 1429 294Q1436 281 1436 261Q1436 213 1407 204Q1347 183 1275 180Q1256 96 1200 45Q1144 -5 1073 -5Q1013 -5 970 24Q928 53 906 101Q884 149 884 205Q884 281 913 340Q942 400 993 433Q1044 467 1106 467Q1182 467 1228 414Q1275 362 1283 285Q1330 288 1395 305Q1403 307 1409 307ZM1081 101Q1113 101 1136 127Q1160 153 1168 202Q1137 223 1120 257Q1104 291 1104 329Q1104 345 1107 361L1102 361Q1062 361 1035 322Q1009 284 1009 214Q1009 159 1030 130Q1052 101 1081 101ZM1452 -5Q1407 -5 1378 36Q1350 78 1350 140Q1350 215 1360 277Q1370 340 1393 410Q1403 440 1421 453Q1439 466 1478 466Q1500 466 1508 459Q1517 452 1517 438Q1517 430 1506 384Q1496 347 1490 317Q1470 212 1470 177Q1470 156 1475 147Q1480 139 1491 139Q1506 139 1528 169Q1551 199 1576 260Q1602 321 1626 410Q1634 440 1650 453Q1667 466 1700 466Q1723 466 1732 460Q1741 455 1741 440Q1741 415 1716 303Q1688 175 1688 145Q1688 126 1696 115Q1704 105 1717 105Q1737 105 1764 129Q1792 154 1838 209Q1850 223 1865 223Q1878 223 1885 211Q1893 199 1893 178Q1893 138 1874 116Q1831 63 1781 29Q1732 -5 1669 -5Q1621 -5 1598 32Q1576 69 1576 136Q1559 68 1525 31Q1491 -5 1452 -5ZM1883 -5Q1845 -5 1829 35Q1814 75 1814 163Q1814 293 1851 410Q1860 439 1880 452Q1901 466 1938 466Q1958 466 1966 461Q1974 456 1974 442Q1974 426 1959 370Q1949 330 1943 300Q1937 270 1933 226Q1966 312 2007 366Q2048 420 2087 443Q2127 466 2160 466Q2225 466 2225 401Q2225 388 2216 338Q2208 298 2208 288Q2208 253 2233 253Q2261 253 2305 297Q2318 310 2332 310Q2345 310 2352 298Q2360 287 2360 268Q2360 231 2340 210Q2312 181 2274 160Q2237 140 2195 140Q2142 140 2114 167Q2087 194 2087 240Q2087 255 2090 270Q2092 290 2092 297Q2092 313 2081 313Q2066 313 2041 279Q2017 246 1993 191Q1969 136 1954 75Q1943 28 1928 11Q1914 -5 1883 -5ZM3064 307Q3077 307 3084 294Q3091 281 3091 261Q3091 236 3084 222Q3077 209 3062 204Q3002 183 2930 180Q2910 97 2854 46Q2799 -5 2732 -5Q2631 -5 2585 72Q2539 149 2539 295Q2539 424 2571 575Q2603 727 2664 833Q2726 940 2811 940Q2857 940 2885 900Q2913 861 2913 798Q2913 716 2882 635Q2851 554 2779 465Q2846 460 2888 409Q2930 359 2938 285Q2985 288 3050 305Q3056 307 3064 307ZM2788 841Q2768 841 2744 781Q2721 722 2701 620Q2681 518 2671 397Q2737 518 2776 610Q2816 703 2816 775Q2816 807 2808 824Q2801 841 2788 841ZM2736 101Q2767 101 2791 127Q2815 153 2823 202Q2792 223 2775 257Q2759 291 2759 329Q2759 343 2763 367L2760 367Q2719 367 2691 326Q2664 286 2664 218Q2664 161 2685 131Q2707 101 2736 101ZM3451 223Q3464 223 3471 211Q3479 199 3479 178Q3479 138 3460 116Q3423 71 3355 33Q3288 -5 3211 -5Q3106 -5 3048 52Q2990 109 2990 208Q2990 277 3019 336Q3048 396 3099 431Q3151 466 3216 466Q3274 466 3309 431Q3344 397 3344 338Q3344 269 3294 219Q3245 170 3127 141Q3152 95 3222 95Q3267 95 3324 126Q3382 158 3424 209Q3436 223 3451 223ZM3199 368Q3162 368 3136 325Q3111 282 3111 221L3111 219Q3170 233 3204 261Q3238 289 3238 326Q3238 345 3227 356Q3217 368 3199 368ZM3584 -27Q3532 -27 3504 -3Q3477 21 3477 51Q3477 77 3496 96Q3515 115 3552 115Q3565 115 3582 112Q3600 110 3609 109Q3608 135 3597 158Q3587 181 3571 202Q3555 224 3541 240Q3510 181 3479 142Q3449 103 3413 68Q3395 50 3375 50Q3359 50 3349 61Q3339 73 3339 90Q3339 110 3353 127L3366 143Q3421 211 3449 255Q3466 284 3489 332Q3512 381 3534 433Q3553 477 3613 477Q3641 477 3652 472Q3663 467 3663 456Q3663 450 3659 437Q3655 424 3648 411Q3630 375 3630 350Q3630 335 3640 317Q3651 299 3673 272Q3705 230 3721 200Q3738 171 3738 136Q3738 126 3736 108Q3785 127 3851 209Q3863 223 3878 223Q3891 223 3898 211Q3906 199 3906 178Q3906 140 3887 116Q3837 54 3791 31Q3746 9 3679 7Q3639 -27 3584 -27ZM4271 223Q4284 223 4291 211Q4299 199 4299 178Q4299 138 4280 116Q4237 63 4186 29Q4135 -5 4069 -5Q3865 -5 3865 282Q3865 326 3868 371L3829 371Q3799 371 3788 382Q3778 393 3778 417Q3778 473 3823 473L3880 473Q3897 583 3932 674Q3967 765 4016 819Q4066 873 4123 873Q4165 873 4189 836Q4213 799 4213 743Q4213 588 4083 473L4195 473Q4211 473 4218 466Q4225 459 4225 440Q4225 371 4112 371L3990 371Q3988 321 3988 293Q3988 189 4012 147Q4037 105 4090 105Q4133 105 4166 131Q4199 157 4244 209Q4256 223 4271 223ZM4096 777Q4081 777 4062 739Q4044 702 4027 635Q4011 569 4000 488Q4059 539 4088 602Q4118 666 4118 718Q4118 777 4096 777Z" fill="#9c1f16" style=""></path></g></g><g transform="matrix(1,0,0,1,2933.7601,1121.28)"><g transform="matrix(1.024,0,0,-1.024,0,0)"><path d="M239 -5Q141 -5 86 50Q32 106 32 197Q32 278 64 339Q96 400 147 433Q198 466 254 466Q309 466 339 433Q370 401 370 350Q370 308 351 279Q333 250 303 250Q284 250 272 259Q261 268 261 284Q261 291 263 300Q265 309 266 313Q271 328 271 341Q271 354 264 361Q258 368 246 368Q223 368 203 347Q183 327 171 292Q159 257 159 215Q159 99 260 99Q301 99 348 126Q396 154 442 209Q454 223 469 223Q482 223 489 211Q497 199 497 178Q497 140 478 116Q431 58 365 26Q300 -5 239 -5ZM539 -5Q477 -5 440 40Q403 85 403 158Q403 238 440 309Q477 381 538 424Q600 468 669 468Q691 468 698 459Q706 451 711 429Q732 433 755 433Q804 433 804 398Q804 377 789 298Q766 183 766 138Q766 123 773 114Q781 105 793 105Q812 105 839 129Q866 154 912 209Q924 223 939 223Q952 223 959 211Q967 199 967 178Q967 138 948 116Q907 65 861 30Q815 -5 772 -5Q739 -5 711 17Q684 40 670 79Q618 -5 539 -5ZM575 96Q597 96 617 122Q637 148 646 191L683 375Q641 374 605 343Q570 313 549 263Q528 213 528 157Q528 126 540 111Q553 96 575 96ZM957 -5Q919 -5 903 35Q888 75 888 163Q888 293 925 410Q934 439 954 452Q975 466 1012 466Q1032 466 1040 461Q1048 456 1048 442Q1048 426 1033 370Q1023 330 1017 300Q1011 270 1007 226Q1040 312 1081 366Q1122 420 1161 443Q1201 466 1234 466Q1299 466 1299 401Q1299 388 1290 338Q1282 298 1282 288Q1282 253 1307 253Q1335 253 1379 297Q1392 310 1406 310Q1419 310 1426 298Q1434 287 1434 268Q1434 231 1414 210Q1386 181 1348 160Q1311 140 1269 140Q1216 140 1188 167Q1161 194 1161 240Q1161 255 1164 270Q1166 290 1166 297Q1166 313 1155 313Q1140 313 1115 279Q1091 246 1067 191Q1043 136 1028 75Q1017 28 1002 11Q988 -5 957 -5Z" fill="#9c1f16" style=""></path></g></g></g></svg>